<mxfile host="app.diagrams.net" modified="2023-07-22T09:37:26.756Z" agent="Mozilla/5.0 (Windows NT 10.0; Win64; x64) AppleWebKit/537.36 (KHTML, like Gecko) Chrome/115.0.0.0 Safari/537.36" etag="06qTdUgj0nkRnpTNXKop" version="21.6.5" type="google">
  <diagram name="Page-1" id="2YBvvXClWsGukQMizWep">
    <mxGraphModel grid="1" page="1" gridSize="10" guides="1" tooltips="1" connect="1" arrows="1" fold="1" pageScale="1" pageWidth="850" pageHeight="1100" math="0" shadow="0">
      <root>
        <mxCell id="0" />
        <mxCell id="1" parent="0" />
        <mxCell id="h1Y4OWPSn1vCXQYsOpTA-1" value="" style="shape=umlLifeline;perimeter=lifelinePerimeter;whiteSpace=wrap;html=1;container=1;dropTarget=0;collapsible=0;recursiveResize=0;outlineConnect=0;portConstraint=eastwest;newEdgeStyle={&quot;edgeStyle&quot;:&quot;elbowEdgeStyle&quot;,&quot;elbow&quot;:&quot;vertical&quot;,&quot;curved&quot;:0,&quot;rounded&quot;:0};participant=umlActor;size=20;" vertex="1" parent="1">
          <mxGeometry x="70" y="90" width="20" height="490" as="geometry" />
        </mxCell>
        <mxCell id="h1Y4OWPSn1vCXQYsOpTA-2" value="" style="html=1;points=[];perimeter=orthogonalPerimeter;outlineConnect=0;targetShapes=umlLifeline;portConstraint=eastwest;newEdgeStyle={&quot;edgeStyle&quot;:&quot;elbowEdgeStyle&quot;,&quot;elbow&quot;:&quot;vertical&quot;,&quot;curved&quot;:0,&quot;rounded&quot;:0};" vertex="1" parent="h1Y4OWPSn1vCXQYsOpTA-1">
          <mxGeometry y="70" width="20" height="420" as="geometry" />
        </mxCell>
        <mxCell id="h1Y4OWPSn1vCXQYsOpTA-3" value="Apply loan" style="shape=umlLifeline;perimeter=lifelinePerimeter;whiteSpace=wrap;html=1;container=1;dropTarget=0;collapsible=0;recursiveResize=0;outlineConnect=0;portConstraint=eastwest;newEdgeStyle={&quot;edgeStyle&quot;:&quot;elbowEdgeStyle&quot;,&quot;elbow&quot;:&quot;vertical&quot;,&quot;curved&quot;:0,&quot;rounded&quot;:0};" vertex="1" parent="1">
          <mxGeometry x="170" y="80" width="100" height="500" as="geometry" />
        </mxCell>
        <mxCell id="h1Y4OWPSn1vCXQYsOpTA-6" value="" style="html=1;points=[];perimeter=orthogonalPerimeter;outlineConnect=0;targetShapes=umlLifeline;portConstraint=eastwest;newEdgeStyle={&quot;edgeStyle&quot;:&quot;elbowEdgeStyle&quot;,&quot;elbow&quot;:&quot;vertical&quot;,&quot;curved&quot;:0,&quot;rounded&quot;:0};" vertex="1" parent="h1Y4OWPSn1vCXQYsOpTA-3">
          <mxGeometry x="40" y="60" width="20" height="120" as="geometry" />
        </mxCell>
        <mxCell id="h1Y4OWPSn1vCXQYsOpTA-4" value="Validate details&amp;nbsp;" style="shape=umlLifeline;perimeter=lifelinePerimeter;whiteSpace=wrap;html=1;container=1;dropTarget=0;collapsible=0;recursiveResize=0;outlineConnect=0;portConstraint=eastwest;newEdgeStyle={&quot;edgeStyle&quot;:&quot;elbowEdgeStyle&quot;,&quot;elbow&quot;:&quot;vertical&quot;,&quot;curved&quot;:0,&quot;rounded&quot;:0};" vertex="1" parent="1">
          <mxGeometry x="340" y="80" width="100" height="500" as="geometry" />
        </mxCell>
        <mxCell id="h1Y4OWPSn1vCXQYsOpTA-9" value="" style="html=1;points=[];perimeter=orthogonalPerimeter;outlineConnect=0;targetShapes=umlLifeline;portConstraint=eastwest;newEdgeStyle={&quot;edgeStyle&quot;:&quot;elbowEdgeStyle&quot;,&quot;elbow&quot;:&quot;vertical&quot;,&quot;curved&quot;:0,&quot;rounded&quot;:0};" vertex="1" parent="h1Y4OWPSn1vCXQYsOpTA-4">
          <mxGeometry x="40" y="60" width="20" height="110" as="geometry" />
        </mxCell>
        <mxCell id="h1Y4OWPSn1vCXQYsOpTA-5" value="Bank system" style="shape=umlLifeline;perimeter=lifelinePerimeter;whiteSpace=wrap;html=1;container=1;dropTarget=0;collapsible=0;recursiveResize=0;outlineConnect=0;portConstraint=eastwest;newEdgeStyle={&quot;edgeStyle&quot;:&quot;elbowEdgeStyle&quot;,&quot;elbow&quot;:&quot;vertical&quot;,&quot;curved&quot;:0,&quot;rounded&quot;:0};" vertex="1" parent="1">
          <mxGeometry x="830" y="80" width="100" height="500" as="geometry" />
        </mxCell>
        <mxCell id="h1Y4OWPSn1vCXQYsOpTA-12" value="" style="html=1;points=[];perimeter=orthogonalPerimeter;outlineConnect=0;targetShapes=umlLifeline;portConstraint=eastwest;newEdgeStyle={&quot;edgeStyle&quot;:&quot;elbowEdgeStyle&quot;,&quot;elbow&quot;:&quot;vertical&quot;,&quot;curved&quot;:0,&quot;rounded&quot;:0};" vertex="1" parent="h1Y4OWPSn1vCXQYsOpTA-5">
          <mxGeometry x="40" y="70" width="20" height="430" as="geometry" />
        </mxCell>
        <mxCell id="h1Y4OWPSn1vCXQYsOpTA-7" value="send request to &lt;br&gt;apply loan" style="html=1;verticalAlign=bottom;endArrow=block;edgeStyle=elbowEdgeStyle;elbow=horizontal;curved=0;rounded=0;" edge="1" parent="1" source="h1Y4OWPSn1vCXQYsOpTA-2">
          <mxGeometry width="80" relative="1" as="geometry">
            <mxPoint x="100" y="180" as="sourcePoint" />
            <mxPoint x="210" y="180" as="targetPoint" />
            <Array as="points">
              <mxPoint x="160" y="180" />
            </Array>
          </mxGeometry>
        </mxCell>
        <mxCell id="h1Y4OWPSn1vCXQYsOpTA-8" value="&lt;font style=&quot;font-size: 14px;&quot;&gt;check detaills&lt;/font&gt;" style="html=1;verticalAlign=bottom;endArrow=block;edgeStyle=elbowEdgeStyle;elbow=vertical;curved=0;rounded=0;" edge="1" parent="1">
          <mxGeometry width="80" relative="1" as="geometry">
            <mxPoint x="229" y="180" as="sourcePoint" />
            <mxPoint x="379" y="180" as="targetPoint" />
            <Array as="points">
              <mxPoint x="289" y="180" />
            </Array>
          </mxGeometry>
        </mxCell>
        <mxCell id="h1Y4OWPSn1vCXQYsOpTA-13" value="&lt;font style=&quot;font-size: 12px;&quot;&gt;Send request with details&lt;/font&gt;" style="html=1;verticalAlign=bottom;endArrow=block;edgeStyle=elbowEdgeStyle;elbow=horizontal;curved=0;rounded=0;" edge="1" parent="1" target="h1Y4OWPSn1vCXQYsOpTA-12">
          <mxGeometry x="-0.617" width="80" relative="1" as="geometry">
            <mxPoint x="400" y="180" as="sourcePoint" />
            <mxPoint x="550" y="180" as="targetPoint" />
            <Array as="points">
              <mxPoint x="460" y="180" />
            </Array>
            <mxPoint as="offset" />
          </mxGeometry>
        </mxCell>
        <mxCell id="h1Y4OWPSn1vCXQYsOpTA-14" value="&lt;font style=&quot;font-size: 14px;&quot;&gt;Loan&lt;/font&gt; &lt;font style=&quot;font-size: 14px;&quot;&gt;reject&lt;/font&gt;" style="html=1;verticalAlign=bottom;endArrow=open;dashed=1;endSize=8;edgeStyle=elbowEdgeStyle;elbow=vertical;curved=0;rounded=0;" edge="1" parent="1" target="h1Y4OWPSn1vCXQYsOpTA-2">
          <mxGeometry x="0.5564" relative="1" as="geometry">
            <mxPoint x="370" y="230" as="sourcePoint" />
            <mxPoint x="100" y="230" as="targetPoint" />
            <Array as="points">
              <mxPoint x="370" y="230" />
            </Array>
            <mxPoint x="1" as="offset" />
          </mxGeometry>
        </mxCell>
        <mxCell id="h1Y4OWPSn1vCXQYsOpTA-15" value="&lt;font style=&quot;font-size: 12px;&quot;&gt;Return Loan Approved&amp;nbsp;&lt;/font&gt;" style="html=1;verticalAlign=bottom;endArrow=open;dashed=1;endSize=8;edgeStyle=elbowEdgeStyle;elbow=vertical;curved=0;rounded=0;" edge="1" parent="1" source="h1Y4OWPSn1vCXQYsOpTA-12">
          <mxGeometry relative="1" as="geometry">
            <mxPoint x="850" y="426" as="sourcePoint" />
            <mxPoint x="90" y="426" as="targetPoint" />
          </mxGeometry>
        </mxCell>
        <mxCell id="h1Y4OWPSn1vCXQYsOpTA-16" value="Apply loan , check Status and interest rate" style="text;align=center;fontStyle=1;verticalAlign=middle;spacingLeft=3;spacingRight=3;strokeColor=none;rotatable=0;points=[[0,0.5],[1,0.5]];portConstraint=eastwest;html=1;" vertex="1" parent="1">
          <mxGeometry x="60" y="20" width="270" height="26" as="geometry" />
        </mxCell>
        <mxCell id="h1Y4OWPSn1vCXQYsOpTA-17" value="check status&amp;nbsp;" style="shape=umlLifeline;perimeter=lifelinePerimeter;whiteSpace=wrap;html=1;container=1;dropTarget=0;collapsible=0;recursiveResize=0;outlineConnect=0;portConstraint=eastwest;newEdgeStyle={&quot;edgeStyle&quot;:&quot;elbowEdgeStyle&quot;,&quot;elbow&quot;:&quot;vertical&quot;,&quot;curved&quot;:0,&quot;rounded&quot;:0};" vertex="1" parent="1">
          <mxGeometry x="520" y="80" width="100" height="510" as="geometry" />
        </mxCell>
        <mxCell id="h1Y4OWPSn1vCXQYsOpTA-18" value="" style="html=1;points=[];perimeter=orthogonalPerimeter;outlineConnect=0;targetShapes=umlLifeline;portConstraint=eastwest;newEdgeStyle={&quot;edgeStyle&quot;:&quot;elbowEdgeStyle&quot;,&quot;elbow&quot;:&quot;vertical&quot;,&quot;curved&quot;:0,&quot;rounded&quot;:0};" vertex="1" parent="h1Y4OWPSn1vCXQYsOpTA-17">
          <mxGeometry x="40" y="270" width="20" height="70" as="geometry" />
        </mxCell>
        <mxCell id="h1Y4OWPSn1vCXQYsOpTA-21" value="&lt;font style=&quot;font-size: 12px;&quot;&gt;Loan Appiled&amp;nbsp;&lt;/font&gt;" style="html=1;verticalAlign=bottom;endArrow=open;dashed=1;endSize=8;edgeStyle=elbowEdgeStyle;elbow=vertical;curved=0;rounded=0;" edge="1" parent="1" source="h1Y4OWPSn1vCXQYsOpTA-12">
          <mxGeometry x="-0.0394" y="-6" relative="1" as="geometry">
            <mxPoint x="750" y="276" as="sourcePoint" />
            <mxPoint x="100" y="276" as="targetPoint" />
            <mxPoint as="offset" />
          </mxGeometry>
        </mxCell>
        <mxCell id="rI5696CyqrLKIlxSB01p-2" value="&lt;font style=&quot;font-size: 12px;&quot;&gt;Request status of loan&lt;/font&gt;" style="html=1;verticalAlign=bottom;endArrow=block;edgeStyle=elbowEdgeStyle;elbow=horizontal;curved=0;rounded=0;" edge="1" parent="1">
          <mxGeometry x="-0.0638" y="13" width="80" relative="1" as="geometry">
            <mxPoint x="90" y="383" as="sourcePoint" />
            <mxPoint x="560" y="383" as="targetPoint" />
            <mxPoint as="offset" />
          </mxGeometry>
        </mxCell>
        <mxCell id="rI5696CyqrLKIlxSB01p-5" value="Interest&amp;nbsp;" style="shape=umlLifeline;perimeter=lifelinePerimeter;whiteSpace=wrap;html=1;container=1;dropTarget=0;collapsible=0;recursiveResize=0;outlineConnect=0;portConstraint=eastwest;newEdgeStyle={&quot;edgeStyle&quot;:&quot;elbowEdgeStyle&quot;,&quot;elbow&quot;:&quot;vertical&quot;,&quot;curved&quot;:0,&quot;rounded&quot;:0};" vertex="1" parent="1">
          <mxGeometry x="690" y="80" width="100" height="500" as="geometry" />
        </mxCell>
        <mxCell id="rI5696CyqrLKIlxSB01p-13" value="&lt;font style=&quot;font-size: 12px;&quot;&gt;request send&lt;/font&gt;" style="html=1;verticalAlign=bottom;endArrow=block;edgeStyle=elbowEdgeStyle;elbow=vertical;curved=0;rounded=0;" edge="1" parent="1">
          <mxGeometry x="-0.3103" width="80" relative="1" as="geometry">
            <mxPoint x="580" y="380" as="sourcePoint" />
            <mxPoint x="870" y="380" as="targetPoint" />
            <Array as="points">
              <mxPoint x="630" y="380" />
            </Array>
            <mxPoint as="offset" />
          </mxGeometry>
        </mxCell>
        <mxCell id="rI5696CyqrLKIlxSB01p-14" value="" style="html=1;points=[];perimeter=orthogonalPerimeter;outlineConnect=0;targetShapes=umlLifeline;portConstraint=eastwest;newEdgeStyle={&quot;edgeStyle&quot;:&quot;elbowEdgeStyle&quot;,&quot;elbow&quot;:&quot;vertical&quot;,&quot;curved&quot;:0,&quot;rounded&quot;:0};" vertex="1" parent="1">
          <mxGeometry x="730" y="460" width="20" height="70" as="geometry" />
        </mxCell>
        <mxCell id="rI5696CyqrLKIlxSB01p-15" value="&lt;font style=&quot;font-size: 12px;&quot;&gt;Request Interest rate&lt;/font&gt;" style="html=1;verticalAlign=bottom;endArrow=block;edgeStyle=elbowEdgeStyle;elbow=horizontal;curved=0;rounded=0;" edge="1" parent="1">
          <mxGeometry x="-0.2934" y="8" width="80" relative="1" as="geometry">
            <mxPoint x="86" y="478" as="sourcePoint" />
            <mxPoint x="720" y="478" as="targetPoint" />
            <mxPoint as="offset" />
          </mxGeometry>
        </mxCell>
        <mxCell id="rI5696CyqrLKIlxSB01p-16" value="&lt;font style=&quot;font-size: 12px;&quot;&gt;request send&lt;/font&gt;" style="html=1;verticalAlign=bottom;endArrow=block;edgeStyle=elbowEdgeStyle;elbow=vertical;curved=0;rounded=0;" edge="1" parent="1">
          <mxGeometry width="80" relative="1" as="geometry">
            <mxPoint x="750" y="476.44000000000005" as="sourcePoint" />
            <mxPoint x="860" y="476" as="targetPoint" />
            <Array as="points">
              <mxPoint x="740" y="476.44" />
            </Array>
          </mxGeometry>
        </mxCell>
        <mxCell id="rI5696CyqrLKIlxSB01p-17" value="&lt;font style=&quot;font-size: 12px;&quot;&gt;Return interest&amp;nbsp; rate&lt;/font&gt;" style="html=1;verticalAlign=bottom;endArrow=open;dashed=1;endSize=8;edgeStyle=elbowEdgeStyle;elbow=vertical;curved=0;rounded=0;" edge="1" parent="1" source="h1Y4OWPSn1vCXQYsOpTA-12">
          <mxGeometry relative="1" as="geometry">
            <mxPoint x="730" y="550" as="sourcePoint" />
            <mxPoint x="90" y="549" as="targetPoint" />
          </mxGeometry>
        </mxCell>
        <mxCell id="rI5696CyqrLKIlxSB01p-21" style="edgeStyle=orthogonalEdgeStyle;rounded=0;orthogonalLoop=1;jettySize=auto;html=1;exitX=1;exitY=0.5;exitDx=0;exitDy=0;" edge="1" parent="1" source="h1Y4OWPSn1vCXQYsOpTA-16" target="h1Y4OWPSn1vCXQYsOpTA-16">
          <mxGeometry relative="1" as="geometry" />
        </mxCell>
      </root>
    </mxGraphModel>
  </diagram>
</mxfile>
